HIERARCHY
ROOT joint_Root
{
	OFFSET 0.0 0.0 0.0
	CHANNELS 6 Xposition Yposition Zposition Zrotation Xrotation Yrotation 
	JOINT Hips
	{
		OFFSET 4.5925 91.4895 -427.239
		CHANNELS 6 Xposition Yposition Zposition Zrotation Xrotation Yrotation 
		JOINT Spine
		{
			OFFSET 15.7357 0.0 0.0
			CHANNELS 6 Xposition Yposition Zposition Zrotation Xrotation Yrotation 
			JOINT Chest
			{
				OFFSET 8.98455 -0.406207 0.0
				CHANNELS 6 Xposition Yposition Zposition Zrotation Xrotation Yrotation 
				JOINT Neck
				{
					OFFSET 16.3773 0.0 0.0
					CHANNELS 6 Xposition Yposition Zposition Zrotation Xrotation Yrotation 
					JOINT Head
					{
						OFFSET 6.45672 0.0 0.0
						CHANNELS 6 Xposition Yposition Zposition Zrotation Xrotation Yrotation 
						End Site
						{
							OFFSET 0.0 0.0 0.0
						}
					}
				}
				JOINT Shoulder_L
				{
					OFFSET 12.9942 -0.242716 4.98039
					CHANNELS 6 Xposition Yposition Zposition Zrotation Xrotation Yrotation 
					JOINT UpperArm_L
					{
						OFFSET 5.34809 0.0 0.0
						CHANNELS 6 Xposition Yposition Zposition Zrotation Xrotation Yrotation 
						JOINT LowerArm_L
						{
							OFFSET 24.3286 1.87007e-05 0.0
							CHANNELS 6 Xposition Yposition Zposition Zrotation Xrotation Yrotation 
							JOINT Hand_L
							{
								OFFSET 22.2916 0.0 0.0
								CHANNELS 6 Xposition Yposition Zposition Zrotation Xrotation Yrotation 
								End Site
								{
									OFFSET 0.0 0.0 0.0
								}
							}
						}
					}
				}
				JOINT Shoulder_R
				{
					OFFSET 12.9945 -0.242716 -4.98039
					CHANNELS 6 Xposition Yposition Zposition Zrotation Xrotation Yrotation 
					JOINT UpperArm_R
					{
						OFFSET -5.34813 0.0 0.0
						CHANNELS 6 Xposition Yposition Zposition Zrotation Xrotation Yrotation 
						JOINT LowerArm_R
						{
							OFFSET -24.3289 0.000322201 0.0
							CHANNELS 6 Xposition Yposition Zposition Zrotation Xrotation Yrotation 
							JOINT Hand_R
							{
								OFFSET -22.2915 -0.000108084 0.0
								CHANNELS 6 Xposition Yposition Zposition Zrotation Xrotation Yrotation 
								End Site
								{
									OFFSET 0.0 0.0 0.0
								}
							}
						}
					}
				}
			}
		}
		JOINT UpperLeg_L
		{
			OFFSET -2.19248 -6.46944 0.0
			CHANNELS 6 Xposition Yposition Zposition Zrotation Xrotation Yrotation 
			JOINT LowerLeg_L
			{
				OFFSET 39.0811 0.0 -1.23785e-05
				CHANNELS 6 Xposition Yposition Zposition Zrotation Xrotation Yrotation 
				JOINT Foot_L
				{
					OFFSET 40.9854 0.0 -1.26872e-05
					CHANNELS 6 Xposition Yposition Zposition Zrotation Xrotation Yrotation 
					JOINT Toes_L
					{
						OFFSET 11.7543 0.0 0.0
						CHANNELS 6 Xposition Yposition Zposition Zrotation Xrotation Yrotation 
						End Site
						{
							OFFSET 0.0 0.0 0.0
						}
					}
				}
			}
		}
		JOINT UpperLeg_R
		{
			OFFSET -2.19251 6.46944 0.0
			CHANNELS 6 Xposition Yposition Zposition Zrotation Xrotation Yrotation 
			JOINT LowerLeg_R
			{
				OFFSET -39.0811 -0.00228153 -0.0401928
				CHANNELS 6 Xposition Yposition Zposition Zrotation Xrotation Yrotation 
				JOINT Foot_R
				{
					OFFSET -40.9854 0.0 0.0
					CHANNELS 6 Xposition Yposition Zposition Zrotation Xrotation Yrotation 
					JOINT Toes_R
					{
						OFFSET -11.7543 0.0 0.0
						CHANNELS 6 Xposition Yposition Zposition Zrotation Xrotation Yrotation 
						End Site
						{
							OFFSET 0.0 0.0 0.0
						}
					}
				}
			}
		}
	}
}
MOTION
Frames:	5
Frame Time:	0.0333333
0.000000 0.000000 0.000000 0.000000 0.000000 -0.000000 -2.000690 91.569600 1.611740 89.489600 0.473495 3.827530 15.735700 0.000005 -0.000001 73.980900 87.740300 -74.107000 8.984550 -0.406207 -0.000000 -3.423820 -1.234230 -0.289072 16.377300 -0.000001 -0.000001 7.111700 -4.372310 2.508700 6.456720 -0.000001 -0.000000 0.993727 -4.490600 -1.228060 12.994200 -0.242716 4.980390 -83.844800 -11.401700 -61.386000 5.348090 -0.000007 -0.000001 -39.065900 -61.435100 -84.752600 24.328600 0.000019 0.000005 12.758000 11.910300 -47.652300 22.291600 -0.000001 0.000005 22.305700 5.385820 -2.480620 12.994500 -0.242716 -4.980390 95.169100 -11.174700 -64.977300 -5.348130 -0.000001 -0.000004 -47.744000 -59.108200 -95.865500 -24.328900 0.000322 -0.000009 -2.510820 -2.624530 -43.745700 -22.291500 -0.000108 -0.000004 21.183000 5.589330 -10.719400 -2.192480 -6.469440 -0.000000 -174.862000 -9.452680 -2.862330 39.081100 -0.000007 -0.000012 -0.168758 0.357739 25.255000 40.985400 -0.000006 -0.000013 -1.039120 6.414770 -68.457800 11.754300 -0.000000 0.000003 -0.000171 -0.001622 -16.639000 -2.192510 6.469440 -0.000001 176.957000 23.907800 178.544000 -39.081100 -0.002282 -0.040193 -0.041497 0.095879 25.048900 -40.985400 0.000008 0.000006 5.079810 10.861700 -70.062700 -11.754300 -0.000006 -0.000006 -0.002009 -0.028834 -17.745600
0.000000 0.000000 0.000000 0.000000 0.000000 -0.000000 -2.053500 91.590400 1.564310 89.503400 0.372172 3.640990 15.735700 0.000005 -0.000001 74.636800 87.734500 -74.792800 8.984550 -0.406207 -0.000000 -3.398910 -1.184620 -0.347168 16.377300 -0.000001 -0.000001 6.883830 -4.405590 2.535910 6.456720 -0.000001 -0.000000 1.000300 -4.505490 -1.063810 12.994200 -0.242716 4.980390 -84.029200 -11.003900 -61.279800 5.348090 -0.000007 -0.000001 -37.938000 -60.898800 -81.973900 24.328600 0.000019 0.000005 11.731100 10.121300 -49.763400 22.291600 -0.000001 0.000005 20.877200 5.372210 -2.053250 12.994500 -0.242716 -4.980390 94.915800 -10.563100 -64.864900 -5.348130 -0.000001 -0.000004 -46.827700 -58.847500 -93.880300 -24.328900 0.000322 -0.000009 -3.268230 -3.234780 -45.327100 -22.291500 -0.000108 -0.000004 20.716600 5.569050 -9.641020 -2.192480 -6.469440 -0.000000 -174.896000 -9.446950 -3.015490 39.081100 -0.000007 -0.000012 -0.166600 0.355182 25.129400 40.985400 -0.000006 -0.000013 -1.107460 6.278720 -68.358200 11.754300 -0.000000 0.000003 -0.000154 -0.001487 -16.634000 -2.192510 6.469440 -0.000001 177.099000 23.745800 178.320000 -39.081100 -0.002282 -0.040193 -0.043518 0.100622 24.957500 -40.985400 0.000008 0.000006 5.032480 10.824200 -69.963000 -11.754300 -0.000006 -0.000006 -0.002036 -0.029171 -17.759300
0.000000 0.000000 0.000000 0.000000 0.000000 -0.000000 -2.096810 91.606600 1.518620 89.497100 0.295014 3.489740 15.735700 0.000005 -0.000001 75.068400 87.702600 -75.243900 8.984550 -0.406207 -0.000000 -3.328380 -1.166390 -0.384903 16.377300 -0.000001 -0.000001 6.522020 -4.419380 2.527400 6.456720 -0.000001 -0.000000 1.017280 -4.529880 -0.878750 12.994200 -0.242716 4.980390 -84.364400 -10.391800 -61.318500 5.348090 -0.000007 -0.000001 -36.029400 -59.889100 -77.334400 24.328600 0.000019 0.000005 10.659600 7.923080 -53.789200 22.291600 -0.000001 0.000005 19.406500 5.354490 -1.509910 12.994500 -0.242716 -4.980390 94.507500 -9.677520 -64.875500 -5.348130 -0.000001 -0.000004 -44.619400 -58.335200 -89.665000 -24.328900 0.000322 -0.000009 -4.947390 -4.360320 -48.690200 -22.291500 -0.000108 -0.000004 20.241100 5.546910 -8.559370 -2.192480 -6.469440 -0.000000 -174.873000 -9.610170 -3.146680 39.081100 -0.000007 -0.000012 -0.166121 0.355525 25.044800 40.985400 -0.000006 -0.000013 -1.125820 6.348130 -68.279700 11.754300 -0.000000 0.000003 -0.000170 -0.001618 -16.638900 -2.192510 6.469440 -0.000001 177.236000 23.619400 178.140000 -39.081100 -0.002282 -0.040193 -0.043572 0.101083 24.882700 -40.985400 0.000008 0.000006 5.042850 10.782900 -69.892700 -11.754300 -0.000006 -0.000006 -0.001924 -0.027767 -17.702200
0.000000 0.000000 0.000000 0.000000 0.000000 -0.000000 -2.114890 91.616300 1.452230 89.531200 0.215166 3.342160 15.735700 0.000005 -0.000001 74.647500 87.638200 -74.833900 8.984550 -0.406207 -0.000000 -3.213260 -1.232190 -0.407374 16.377300 -0.000001 -0.000001 5.989990 -4.339910 2.467620 6.456720 -0.000001 -0.000000 1.007830 -4.413490 -0.721592 12.994200 -0.242716 4.980390 -84.825000 -9.567110 -61.413000 5.348090 -0.000007 -0.000001 -33.431300 -58.110600 -70.583200 24.328600 0.000019 0.000005 9.824100 5.736670 -60.013300 22.291600 -0.000001 0.000005 18.374400 5.330110 -0.787278 12.994500 -0.242716 -4.980390 93.990300 -8.594260 -64.977200 -5.348130 -0.000001 -0.000004 -41.156700 -57.209800 -83.066400 -24.328900 0.000322 -0.000009 -7.065200 -5.155370 -54.040700 -22.291500 -0.000108 -0.000004 19.875800 5.518140 -7.281530 -2.192480 -6.469440 -0.000000 -174.917000 -9.716850 -3.311030 39.081100 -0.000007 -0.000012 -0.166034 0.356141 24.995300 40.985400 -0.000006 -0.000013 -1.131890 6.380780 -68.206200 11.754300 -0.000000 0.000003 -0.000169 -0.001608 -16.638500 -2.192510 6.469440 -0.000001 177.272000 23.580500 177.925000 -39.081100 -0.002282 -0.040193 -0.052151 0.119657 24.868600 -40.985400 0.000008 0.000006 4.874610 10.872900 -69.793700 -11.754300 -0.000006 -0.000006 -0.001874 -0.027122 -17.676000
0.000000 0.000000 0.000000 0.000000 0.000000 -0.000000 -2.124880 91.632200 1.365800 89.557400 0.161301 3.243950 15.735700 0.000005 -0.000001 72.681600 87.478900 -72.825700 8.984550 -0.406207 -0.000000 -2.954650 -1.486910 -0.326620 16.377300 -0.000001 -0.000001 5.203960 -4.089740 2.338880 6.456720 -0.000001 -0.000000 0.749441 -4.104780 -0.706389 12.994200 -0.242716 4.980390 -85.435800 -8.447780 -61.480400 5.348090 -0.000007 -0.000001 -30.569200 -55.351000 -62.086000 24.328600 0.000019 0.000005 9.047390 3.723150 -67.824400 22.291600 -0.000001 0.000005 18.274600 5.306600 -0.115011 12.994500 -0.242716 -4.980390 93.360800 -7.457140 -65.655400 -5.348130 -0.000001 -0.000004 -36.135300 -55.652000 -73.447000 -24.328900 0.000322 -0.000009 -9.159010 -5.034850 -61.429100 -22.291500 -0.000108 -0.000004 19.490000 5.483440 -5.878500 -2.192480 -6.469440 -0.000000 -174.947000 -9.863440 -3.438080 39.081100 -0.000007 -0.000012 -0.164600 0.354095 24.931400 40.985400 -0.000006 -0.000013 -1.124740 6.449410 -68.105100 11.754300 -0.000000 0.000003 -0.000166 -0.001579 -16.637400 -2.192510 6.469440 -0.000001 177.302000 23.639900 177.756000 -39.081100 -0.002282 -0.040193 -0.055662 0.127397 24.840200 -40.985400 0.000008 0.000006 4.810420 10.982800 -69.694600 -11.754300 -0.000006 -0.000006 -0.001841 -0.026713 -17.659300
